<svg width="20" height="20" viewBox="0 0 20 20" fill="none" xmlns="http://www.w3.org/2000/svg">
<path d="M1.66663 4.16669L7.42748 7.4372C9.53221 8.6321 10.4677 8.6321 12.5725 7.4372L18.3333 4.16669" stroke="black" stroke-width="1.5" stroke-linejoin="round"/>
<path d="M8.74996 16.25C8.36138 16.2449 7.97231 16.2375 7.58232 16.2276C4.95857 16.1617 3.64669 16.1287 2.70409 15.182C1.76148 14.2352 1.73424 12.9572 1.67977 10.4011C1.66225 9.57923 1.66224 8.76223 1.67976 7.94034C1.73424 5.38425 1.76148 4.10621 2.70408 3.15947C3.64669 2.21273 4.95857 2.17975 7.58231 2.1138C9.19938 2.07315 10.8005 2.07315 12.4176 2.1138C15.0414 2.17976 16.3532 2.21275 17.2958 3.15949C18.2385 4.10622 18.2657 5.38426 18.3201 7.94035C18.3282 8.31874 18.3325 8.49706 18.3332 8.74998" stroke="black" stroke-width="1.5" stroke-linecap="round" stroke-linejoin="round"/>
<path d="M15.8334 14.1667C15.8334 14.857 15.2737 15.4167 14.5834 15.4167C13.893 15.4167 13.3334 14.857 13.3334 14.1667C13.3334 13.4764 13.893 12.9167 14.5834 12.9167C15.2737 12.9167 15.8334 13.4764 15.8334 14.1667ZM15.8334 14.1667V14.5834C15.8334 15.2737 16.393 15.8334 17.0834 15.8334C17.7737 15.8334 18.3334 15.2737 18.3334 14.5834V14.1667C18.3334 12.0956 16.6545 10.4167 14.5834 10.4167C12.5123 10.4167 10.8334 12.0956 10.8334 14.1667C10.8334 16.2378 12.5123 17.9167 14.5834 17.9167" stroke="black" stroke-width="1.5" stroke-linecap="round" stroke-linejoin="round"/>
</svg>
