<svg width="30" height="30" viewBox="0 0 30 30" fill="none" xmlns="http://www.w3.org/2000/svg">
<rect width="30" height="30" rx="15" fill="url(#paint0_linear_2184_2896)"/>
<g clip-path="url(#clip0_2184_2896)">
<path d="M15 7.97342C17.29 7.97342 17.5588 7.98363 18.464 8.02446C19.301 8.06189 19.7536 8.2014 20.0564 8.3205C20.458 8.47702 20.7438 8.66077 21.0432 8.96021C21.3427 9.25964 21.5298 9.54547 21.6829 9.94699C21.7986 10.2498 21.9415 10.7024 21.979 11.5395C22.0198 12.4446 22.03 12.7134 22.03 15.0034C22.03 17.2934 22.0198 17.5623 21.979 18.4674C21.9415 19.3044 21.802 19.757 21.6829 20.0598C21.5264 20.4614 21.3427 20.7472 21.0432 21.0466C20.7438 21.3461 20.458 21.5332 20.0564 21.6863C19.7536 21.802 19.301 21.945 18.464 21.9824C17.5588 22.0232 17.29 22.0334 15 22.0334C12.71 22.0334 12.4412 22.0232 11.536 21.9824C10.699 21.945 10.2464 21.8054 9.94358 21.6863C9.54206 21.5298 9.25623 21.3461 8.95679 21.0466C8.65735 20.7472 8.4702 20.4614 8.31708 20.0598C8.20139 19.757 8.05847 19.3044 8.02104 18.4674C7.98021 17.5623 7.97 17.2934 7.97 15.0034C7.97 12.7134 7.98021 12.4446 8.02104 11.5395C8.05847 10.7024 8.19798 10.2498 8.31708 9.94699C8.4736 9.54547 8.65735 9.25964 8.95679 8.96021C9.25623 8.66077 9.54206 8.47362 9.94358 8.3205C10.2464 8.2048 10.699 8.06189 11.536 8.02446C12.4412 7.98023 12.7134 7.97342 15 7.97342ZM15 6.42859C12.6726 6.42859 12.3799 6.4388 11.4646 6.47963C10.5527 6.52046 9.92997 6.66678 9.38553 6.87775C8.82068 7.09552 8.3443 7.39156 7.86792 7.86794C7.39154 8.34432 7.09891 8.8241 6.87773 9.38554C6.66676 9.92998 6.52045 10.5527 6.47961 11.468C6.43878 12.3799 6.42857 12.6726 6.42857 15C6.42857 17.3275 6.43878 17.6201 6.47961 18.5354C6.52045 19.4474 6.66676 20.0701 6.87773 20.6179C7.09551 21.1827 7.39154 21.6591 7.86792 22.1355C8.3443 22.6119 8.82408 22.9045 9.38553 23.1257C9.92997 23.3367 10.5527 23.483 11.468 23.5238C12.3833 23.5646 12.6726 23.5749 15.0034 23.5749C17.3343 23.5749 17.6235 23.5646 18.5388 23.5238C19.4508 23.483 20.0735 23.3367 20.6213 23.1257C21.1861 22.9079 21.6625 22.6119 22.1389 22.1355C22.6153 21.6591 22.9079 21.1793 23.1291 20.6179C23.3401 20.0735 23.4864 19.4508 23.5272 18.5354C23.568 17.6201 23.5782 17.3309 23.5782 15C23.5782 12.6692 23.568 12.3799 23.5272 11.4646C23.4864 10.5527 23.3401 9.92998 23.1291 9.38214C22.9113 8.81729 22.6153 8.34091 22.1389 7.86453C21.6625 7.38815 21.1827 7.09552 20.6213 6.87434C20.0769 6.66338 19.4542 6.51706 18.5388 6.47623C17.6201 6.4388 17.3275 6.42859 15 6.42859Z" fill="white"/>
<path d="M15 10.6003C12.5705 10.6003 10.5969 12.5705 10.5969 15.0034C10.5969 17.4364 12.5671 19.4066 15 19.4066C17.4329 19.4066 19.4031 17.4364 19.4031 15.0034C19.4031 12.5705 17.4329 10.6003 15 10.6003ZM15 17.8583C13.4211 17.8583 12.1417 16.5789 12.1417 15C12.1417 13.4212 13.4211 12.1418 15 12.1418C16.5789 12.1418 17.8583 13.4212 17.8583 15C17.8583 16.5789 16.5789 17.8583 15 17.8583Z" fill="white"/>
<path d="M19.5766 11.451C20.1442 11.451 20.6043 10.9909 20.6043 10.4234C20.6043 9.85583 20.1442 9.39575 19.5766 9.39575C19.0091 9.39575 18.549 9.85583 18.549 10.4234C18.549 10.9909 19.0091 11.451 19.5766 11.451Z" fill="white"/>
</g>
<defs>
<linearGradient id="paint0_linear_2184_2896" x1="15" y1="0" x2="15" y2="30" gradientUnits="userSpaceOnUse">
<stop stop-color="#F9CE34"/>
<stop offset="0.5" stop-color="#EE2A7B"/>
<stop offset="1" stop-color="#6228D7"/>
</linearGradient>
<clipPath id="clip0_2184_2896">
<rect width="17.1429" height="17.1429" fill="white" transform="translate(6.42857 6.42859)"/>
</clipPath>
</defs>
</svg>
