<svg width="30" height="30" viewBox="0 0 30 30" fill="none" xmlns="http://www.w3.org/2000/svg">
<rect width="30" height="30" rx="15" fill="#0078FF"/>
<path d="M20.7021 23H17.1289C14.5861 23 12.4614 20.9194 12.4808 18.3766C12.4901 17.1593 12.97 16.0177 13.8346 15.1585C14.7005 14.298 15.8478 13.8252 17.0672 13.8252C17.0774 13.8252 17.0871 13.8252 17.0973 13.8252L17.7411 13.8292C17.7445 13.8292 17.7479 13.8292 17.7515 13.8292C18.1869 13.8292 18.5953 13.6544 18.8972 13.3374C19.1458 13.0762 19.2991 12.7338 19.3269 12.3744C19.399 11.4465 18.6643 10.6684 17.7513 10.6684H12.2488C11.3758 10.6684 10.6682 11.376 10.6682 12.2489V19.3319C10.6682 20.3448 9.84704 21.1659 8.8341 21.1659C7.82116 21.1659 7 20.3448 7 19.3319V12.2489C6.99977 9.34991 9.34973 7 12.2488 7H17.6816C20.5913 7 23.022 9.38066 22.9998 12.2901C22.9892 13.6829 22.4401 14.9891 21.4509 15.972C20.4599 16.9566 19.1476 17.4976 17.7522 17.4976C17.7407 17.4976 17.7294 17.4976 17.7178 17.4976L17.074 17.4935H17.0679C16.7386 17.4935 16.521 17.6606 16.4204 17.7606C16.3173 17.863 16.1431 18.0874 16.1492 18.4298C16.1581 18.9336 16.5821 19.3316 17.086 19.3316H20.7021C21.7151 19.3316 22.5362 20.1528 22.5362 21.1657C22.5362 22.1786 21.7151 23 20.7021 23Z" fill="white"/>
</svg>
