<svg width="30" height="30" viewBox="0 0 30 30" fill="none" xmlns="http://www.w3.org/2000/svg">
<rect width="30" height="30" rx="15" fill="black"/>
<g clip-path="url(#clip0_2184_2902)">
<path d="M18.7084 12.6168C19.8108 13.4076 21.1613 13.8729 22.6199 13.8729V11.0561C22.3439 11.0562 22.0685 11.0273 21.7985 10.9699V13.1871C20.34 13.1871 18.9897 12.7218 17.887 11.931V17.6792C17.887 20.5547 15.5642 22.8856 12.6991 22.8856C11.63 22.8856 10.6364 22.5613 9.81094 22.005C10.753 22.9717 12.0668 23.5714 13.5203 23.5714C16.3856 23.5714 18.7086 21.2405 18.7086 18.3648V12.6168H18.7084ZM19.7218 9.775C19.1584 9.1573 18.7885 8.35905 18.7084 7.47655V7.11426H17.93C18.1259 8.23592 18.7943 9.19419 19.7218 9.775ZM11.6231 19.7984C11.3084 19.3842 11.1383 18.8776 11.139 18.3566C11.139 17.0414 12.2015 15.9751 13.5122 15.9751C13.7565 15.975 13.9993 16.0126 14.2321 16.0867V13.207C13.9601 13.1696 13.6855 13.1537 13.411 13.1595V15.4009C13.1781 15.3268 12.9351 15.2891 12.6908 15.2894C11.38 15.2894 10.3177 16.3556 10.3177 17.671C10.3177 18.601 10.8487 19.4062 11.6231 19.7984Z" fill="#FF004F"/>
<path d="M17.887 11.9309C18.9896 12.7217 20.34 13.187 21.7984 13.187V10.9698C20.9843 10.7958 20.2636 10.3689 19.7217 9.775C18.7942 9.19413 18.1259 8.23586 17.93 7.11426H15.8853V18.3647C15.8806 19.6763 14.82 20.7383 13.5121 20.7383C12.7413 20.7383 12.0566 20.3696 11.6229 19.7984C10.8486 19.4062 10.3175 18.6009 10.3175 17.671C10.3175 16.3558 11.3799 15.2894 12.6906 15.2894C12.9418 15.2894 13.1838 15.3287 13.4109 15.401V13.1596C10.5961 13.2179 8.33228 15.5261 8.33228 18.3648C8.33228 19.7818 8.89601 21.0665 9.81096 22.0051C10.6364 22.5613 11.63 22.8857 12.6991 22.8857C15.5643 22.8857 17.887 20.5547 17.887 17.6792V11.9309H17.887Z" fill="white"/>
<path d="M21.7984 10.9699V10.3704C21.0643 10.3715 20.3446 10.1652 19.7217 9.77497C20.2731 10.3808 20.9991 10.7985 21.7984 10.9699ZM17.93 7.11429C17.9113 7.0071 17.8969 6.8992 17.887 6.79088V6.42859H15.0638V17.6792C15.0593 18.9906 13.9987 20.0526 12.6906 20.0526C12.3066 20.0526 11.944 19.9611 11.6229 19.7985C12.0566 20.3696 12.7413 20.7383 13.5121 20.7383C14.8199 20.7383 15.8807 19.6764 15.8853 18.3648V7.11429H17.93ZM13.411 13.1596V12.5214C13.1751 12.489 12.9373 12.4728 12.6991 12.4729C9.83371 12.4728 7.51091 14.8039 7.51091 17.6792C7.51091 19.4818 8.42381 21.0705 9.81103 22.005C8.89608 21.0664 8.33234 19.7818 8.33234 18.3648C8.33234 15.5261 10.5961 13.218 13.411 13.1596Z" fill="#00F2EA"/>
</g>
<defs>
<clipPath id="clip0_2184_2902">
<rect width="17.1429" height="17.1429" fill="white" transform="translate(6.42857 6.42859)"/>
</clipPath>
</defs>
</svg>
