<svg width="30" height="30" viewBox="0 0 30 30" fill="none" xmlns="http://www.w3.org/2000/svg">
<rect width="30" height="30" rx="15" fill="#FF0000"/>
<g clip-path="url(#clip0_2184_2908)">
<path d="M23.2183 10.8781C23.0206 10.1438 22.4417 9.56484 21.7074 9.36714C20.3659 9 14.9999 9 14.9999 9C14.9999 9 9.63399 9 8.2925 9.35302C7.57234 9.55072 6.97926 10.1438 6.78157 10.8781C6.42854 12.2196 6.42854 15.0014 6.42854 15.0014C6.42854 15.0014 6.42854 17.7973 6.78157 19.1247C6.97926 19.859 7.55822 20.4379 8.2925 20.6356C9.64811 21.0028 14.9999 21.0028 14.9999 21.0028C14.9999 21.0028 20.3659 21.0028 21.7074 20.6497C22.4417 20.4521 23.0206 19.8731 23.2183 19.1388C23.5713 17.7973 23.5713 15.0155 23.5713 15.0155C23.5713 15.0155 23.5854 12.2196 23.2183 10.8781Z" fill="white"/>
<path d="M13.2913 17.5714L17.7535 15.0014L13.2913 12.4314V17.5714Z" fill="#FF0000"/>
</g>
<defs>
<clipPath id="clip0_2184_2908">
<rect width="17.1429" height="17.1429" fill="white" transform="translate(6.42854 6.42859)"/>
</clipPath>
</defs>
</svg>
